<svg xmlns="http://www.w3.org/2000/svg" viewBox="0 0 100 100">
  <defs>
    <linearGradient id="grad" x1="0%" y1="0%" x2="100%" y2="100%">
      <stop offset="0%" style="stop-color:#f59f4a;stop-opacity:1" />
      <stop offset="100%" style="stop-color:#e28a3f;stop-opacity:1" />
    </linearGradient>
  </defs>
  <!-- Lobster claw stylized as "C" -->
  <path fill="url(#grad)" d="M70 25c-8-12-22-15-35-10-15 6-25 22-22 40 3 16 18 30 38 28 12-1 22-8 28-18l-12-8c-4 6-10 10-18 10-14 0-22-12-20-26 2-12 12-20 24-18 6 1 11 4 14 9l14-7z"/>
  <circle fill="#34c7b7" cx="75" cy="30" r="8" opacity="0.8"/>
</svg>
